<svg width="115" height="14" viewBox="0 0 115 14" fill="none" xmlns="http://www.w3.org/2000/svg">
<path d="M9.37305 10.01V12.89H0.733046V10.01H3.57305V4.91001C3.45305 5.07001 3.26638 5.23001 3.01305 5.39001C2.75971 5.55001 2.47305 5.70335 2.15305 5.85001C1.84638 5.99668 1.53305 6.11668 1.21305 6.21001C0.893046 6.29001 0.599713 6.33001 0.333046 6.33001V3.37001C0.559713 3.37001 0.839713 3.30335 1.17305 3.17001C1.50638 3.02335 1.83971 2.84335 2.17305 2.63001C2.51971 2.41668 2.81971 2.20335 3.07305 1.99001C3.33971 1.77668 3.50638 1.60335 3.57305 1.47001H6.83305V10.01H9.37305ZM27.1646 7.03001C27.1646 8.20335 26.9379 9.25001 26.4846 10.17C26.0313 11.0767 25.4113 11.79 24.6246 12.31C23.8379 12.83 22.9446 13.09 21.9446 13.09C20.9579 13.09 20.0646 12.83 19.2646 12.31C18.4779 11.79 17.8579 11.0767 17.4046 10.17C16.9513 9.25001 16.7246 8.20335 16.7246 7.03001C16.7246 5.85668 16.9513 4.81668 17.4046 3.91001C17.8579 2.99001 18.4779 2.27001 19.2646 1.75001C20.0646 1.21668 20.9579 0.950015 21.9446 0.950015C22.9446 0.950015 23.8379 1.21668 24.6246 1.75001C25.4113 2.27001 26.0313 2.99001 26.4846 3.91001C26.9379 4.81668 27.1646 5.85668 27.1646 7.03001ZM23.9446 7.03001C23.9446 6.40335 23.8579 5.85668 23.6846 5.39001C23.5113 4.92335 23.2713 4.55668 22.9646 4.29001C22.6713 4.02335 22.3313 3.89001 21.9446 3.89001C21.5446 3.89001 21.1913 4.02335 20.8846 4.29001C20.5779 4.55668 20.3379 4.92335 20.1646 5.39001C20.0046 5.85668 19.9246 6.40335 19.9246 7.03001C19.9246 7.65668 20.0046 8.20335 20.1646 8.67001C20.3379 9.13668 20.5779 9.50335 20.8846 9.77001C21.1913 10.0233 21.5446 10.15 21.9446 10.15C22.3313 10.15 22.6713 10.0233 22.9646 9.77001C23.2713 9.50335 23.5113 9.13668 23.6846 8.67001C23.8579 8.20335 23.9446 7.65668 23.9446 7.03001ZM45.4098 7.03001C45.4098 8.20335 45.1831 9.25001 44.7298 10.17C44.2764 11.0767 43.6564 11.79 42.8698 12.31C42.0831 12.83 41.1898 13.09 40.1898 13.09C39.2031 13.09 38.3098 12.83 37.5098 12.31C36.7231 11.79 36.1031 11.0767 35.6498 10.17C35.1964 9.25001 34.9698 8.20335 34.9698 7.03001C34.9698 5.85668 35.1964 4.81668 35.6498 3.91001C36.1031 2.99001 36.7231 2.27001 37.5098 1.75001C38.3098 1.21668 39.2031 0.950015 40.1898 0.950015C41.1898 0.950015 42.0831 1.21668 42.8698 1.75001C43.6564 2.27001 44.2764 2.99001 44.7298 3.91001C45.1831 4.81668 45.4098 5.85668 45.4098 7.03001ZM42.1898 7.03001C42.1898 6.40335 42.1031 5.85668 41.9298 5.39001C41.7564 4.92335 41.5164 4.55668 41.2098 4.29001C40.9164 4.02335 40.5764 3.89001 40.1898 3.89001C39.7898 3.89001 39.4364 4.02335 39.1298 4.29001C38.8231 4.55668 38.5831 4.92335 38.4098 5.39001C38.2498 5.85668 38.1698 6.40335 38.1698 7.03001C38.1698 7.65668 38.2498 8.20335 38.4098 8.67001C38.5831 9.13668 38.8231 9.50335 39.1298 9.77001C39.4364 10.0233 39.7898 10.15 40.1898 10.15C40.5764 10.15 40.9164 10.0233 41.2098 9.77001C41.5164 9.50335 41.7564 9.13668 41.9298 8.67001C42.1031 8.20335 42.1898 7.65668 42.1898 7.03001ZM63.6549 7.03001C63.6549 8.20335 63.4283 9.25001 62.9749 10.17C62.5216 11.0767 61.9016 11.79 61.1149 12.31C60.3283 12.83 59.4349 13.09 58.4349 13.09C57.4483 13.09 56.5549 12.83 55.7549 12.31C54.9683 11.79 54.3483 11.0767 53.8949 10.17C53.4416 9.25001 53.2149 8.20335 53.2149 7.03001C53.2149 5.85668 53.4416 4.81668 53.8949 3.91001C54.3483 2.99001 54.9683 2.27001 55.7549 1.75001C56.5549 1.21668 57.4483 0.950015 58.4349 0.950015C59.4349 0.950015 60.3283 1.21668 61.1149 1.75001C61.9016 2.27001 62.5216 2.99001 62.9749 3.91001C63.4283 4.81668 63.6549 5.85668 63.6549 7.03001ZM60.4349 7.03001C60.4349 6.40335 60.3483 5.85668 60.1749 5.39001C60.0016 4.92335 59.7616 4.55668 59.4549 4.29001C59.1616 4.02335 58.8216 3.89001 58.4349 3.89001C58.0349 3.89001 57.6816 4.02335 57.3749 4.29001C57.0683 4.55668 56.8283 4.92335 56.6549 5.39001C56.4949 5.85668 56.4149 6.40335 56.4149 7.03001C56.4149 7.65668 56.4949 8.20335 56.6549 8.67001C56.8283 9.13668 57.0683 9.50335 57.3749 9.77001C57.6816 10.0233 58.0349 10.15 58.4349 10.15C58.8216 10.15 59.1616 10.0233 59.4549 9.77001C59.7616 9.50335 60.0016 9.13668 60.1749 8.67001C60.3483 8.20335 60.4349 7.65668 60.4349 7.03001ZM81.9001 7.03001C81.9001 8.20335 81.6734 9.25001 81.2201 10.17C80.7667 11.0767 80.1467 11.79 79.3601 12.31C78.5734 12.83 77.6801 13.09 76.6801 13.09C75.6934 13.09 74.8001 12.83 74.0001 12.31C73.2134 11.79 72.5934 11.0767 72.1401 10.17C71.6867 9.25001 71.4601 8.20335 71.4601 7.03001C71.4601 5.85668 71.6867 4.81668 72.1401 3.91001C72.5934 2.99001 73.2134 2.27001 74.0001 1.75001C74.8001 1.21668 75.6934 0.950015 76.6801 0.950015C77.6801 0.950015 78.5734 1.21668 79.3601 1.75001C80.1467 2.27001 80.7667 2.99001 81.2201 3.91001C81.6734 4.81668 81.9001 5.85668 81.9001 7.03001ZM78.6801 7.03001C78.6801 6.40335 78.5934 5.85668 78.4201 5.39001C78.2467 4.92335 78.0067 4.55668 77.7001 4.29001C77.4067 4.02335 77.0667 3.89001 76.6801 3.89001C76.2801 3.89001 75.9267 4.02335 75.6201 4.29001C75.3134 4.55668 75.0734 4.92335 74.9001 5.39001C74.7401 5.85668 74.6601 6.40335 74.6601 7.03001C74.6601 7.65668 74.7401 8.20335 74.9001 8.67001C75.0734 9.13668 75.3134 9.50335 75.6201 9.77001C75.9267 10.0233 76.2801 10.15 76.6801 10.15C77.0667 10.15 77.4067 10.0233 77.7001 9.77001C78.0067 9.50335 78.2467 9.13668 78.4201 8.67001C78.5934 8.20335 78.6801 7.65668 78.6801 7.03001ZM100.145 7.03001C100.145 8.20335 99.9186 9.25001 99.4652 10.17C99.0119 11.0767 98.3919 11.79 97.6052 12.31C96.8186 12.83 95.9252 13.09 94.9252 13.09C93.9386 13.09 93.0452 12.83 92.2452 12.31C91.4586 11.79 90.8386 11.0767 90.3852 10.17C89.9319 9.25001 89.7052 8.20335 89.7052 7.03001C89.7052 5.85668 89.9319 4.81668 90.3852 3.91001C90.8386 2.99001 91.4586 2.27001 92.2452 1.75001C93.0452 1.21668 93.9386 0.950015 94.9252 0.950015C95.9252 0.950015 96.8186 1.21668 97.6052 1.75001C98.3919 2.27001 99.0119 2.99001 99.4652 3.91001C99.9186 4.81668 100.145 5.85668 100.145 7.03001ZM96.9252 7.03001C96.9252 6.40335 96.8386 5.85668 96.6652 5.39001C96.4919 4.92335 96.2519 4.55668 95.9452 4.29001C95.6519 4.02335 95.3119 3.89001 94.9252 3.89001C94.5252 3.89001 94.1719 4.02335 93.8652 4.29001C93.5586 4.55668 93.3186 4.92335 93.1452 5.39001C92.9852 5.85668 92.9052 6.40335 92.9052 7.03001C92.9052 7.65668 92.9852 8.20335 93.1452 8.67001C93.3186 9.13668 93.5586 9.50335 93.8652 9.77001C94.1719 10.0233 94.5252 10.15 94.9252 10.15C95.3119 10.15 95.6519 10.0233 95.9452 9.77001C96.2519 9.50335 96.4919 9.13668 96.6652 8.67001C96.8386 8.20335 96.9252 7.65668 96.9252 7.03001ZM114.61 4.51001V7.07001H112.71V9.15001H109.83V7.07001H107.95V4.51001H109.83V2.43001H112.71V4.51001H114.61Z" fill="black"/>
</svg>
