<svg width="135" height="13" viewBox="0 0 135 13" fill="none" xmlns="http://www.w3.org/2000/svg">
<path d="M0.945468 12C0.945468 11.3733 0.992135 10.8133 1.08547 10.32C1.19213 9.82667 1.3588 9.38 1.58547 8.98C1.82547 8.56667 2.1388 8.18667 2.52547 7.84C2.92547 7.48 3.42547 7.14 4.02547 6.82C4.65214 6.48667 5.17214 6.20667 5.58547 5.98C6.01214 5.74 6.35214 5.54 6.60547 5.38C6.8588 5.22 7.03214 5.06667 7.12547 4.92C7.23214 4.76 7.28547 4.58667 7.28547 4.4C7.28547 4.14667 7.22547 3.92667 7.10547 3.74C6.98547 3.55333 6.81214 3.41333 6.58547 3.32C6.3588 3.21333 6.0788 3.16 5.74547 3.16C5.4788 3.16 5.22547 3.19333 4.98547 3.26C4.74547 3.32667 4.51214 3.42667 4.28547 3.56C4.07213 3.69333 3.86547 3.85333 3.66547 4.04C3.46547 4.21333 3.26547 4.41333 3.06547 4.64L1.04547 2.28C1.27213 2.05333 1.5588 1.82667 1.90547 1.6C2.26547 1.37333 2.67213 1.17333 3.12547 1C3.5788 0.813333 4.07213 0.666666 4.60547 0.559999C5.15213 0.439999 5.7188 0.379999 6.30547 0.379999C7.26547 0.379999 8.07214 0.526666 8.72547 0.82C9.39214 1.1 9.8988 1.5 10.2455 2.02C10.5921 2.54 10.7655 3.15333 10.7655 3.86C10.7655 4.31333 10.6921 4.71333 10.5455 5.06C10.4121 5.39333 10.2321 5.69333 10.0055 5.96C9.7788 6.22667 9.5188 6.46667 9.22547 6.68C8.94547 6.89333 8.66547 7.08667 8.38547 7.26C8.06547 7.42 7.76547 7.58 7.48547 7.74C7.20547 7.88667 6.94547 8.03333 6.70547 8.18C6.46547 8.31333 6.2388 8.46 6.02547 8.62C5.82547 8.76667 5.63214 8.93333 5.44547 9.12H10.9855V12H0.945468ZM29.167 6.14C29.167 7.31333 28.9404 8.36 28.487 9.28C28.0337 10.1867 27.4137 10.9 26.627 11.42C25.8404 11.94 24.947 12.2 23.947 12.2C22.9604 12.2 22.067 11.94 21.267 11.42C20.4804 10.9 19.8604 10.1867 19.407 9.28C18.9537 8.36 18.727 7.31333 18.727 6.14C18.727 4.96667 18.9537 3.92667 19.407 3.02C19.8604 2.1 20.4804 1.38 21.267 0.859999C22.067 0.326666 22.9604 0.0599999 23.947 0.0599999C24.947 0.0599999 25.8404 0.326666 26.627 0.859999C27.4137 1.38 28.0337 2.1 28.487 3.02C28.9404 3.92667 29.167 4.96667 29.167 6.14ZM25.947 6.14C25.947 5.51333 25.8604 4.96667 25.687 4.5C25.5137 4.03333 25.2737 3.66667 24.967 3.4C24.6737 3.13333 24.3337 3 23.947 3C23.547 3 23.1937 3.13333 22.887 3.4C22.5804 3.66667 22.3404 4.03333 22.167 4.5C22.007 4.96667 21.927 5.51333 21.927 6.14C21.927 6.76667 22.007 7.31333 22.167 7.78C22.3404 8.24667 22.5804 8.61333 22.887 8.88C23.1937 9.13333 23.547 9.26 23.947 9.26C24.3337 9.26 24.6737 9.13333 24.967 8.88C25.2737 8.61333 25.5137 8.24667 25.687 7.78C25.8604 7.31333 25.947 6.76667 25.947 6.14ZM47.4122 6.14C47.4122 7.31333 47.1855 8.36 46.7322 9.28C46.2789 10.1867 45.6589 10.9 44.8722 11.42C44.0855 11.94 43.1922 12.2 42.1922 12.2C41.2055 12.2 40.3122 11.94 39.5122 11.42C38.7255 10.9 38.1055 10.1867 37.6522 9.28C37.1989 8.36 36.9722 7.31333 36.9722 6.14C36.9722 4.96667 37.1989 3.92667 37.6522 3.02C38.1055 2.1 38.7255 1.38 39.5122 0.859999C40.3122 0.326666 41.2055 0.0599999 42.1922 0.0599999C43.1922 0.0599999 44.0855 0.326666 44.8722 0.859999C45.6589 1.38 46.2789 2.1 46.7322 3.02C47.1855 3.92667 47.4122 4.96667 47.4122 6.14ZM44.1922 6.14C44.1922 5.51333 44.1055 4.96667 43.9322 4.5C43.7589 4.03333 43.5189 3.66667 43.2122 3.4C42.9189 3.13333 42.5789 3 42.1922 3C41.7922 3 41.4389 3.13333 41.1322 3.4C40.8255 3.66667 40.5855 4.03333 40.4122 4.5C40.2522 4.96667 40.1722 5.51333 40.1722 6.14C40.1722 6.76667 40.2522 7.31333 40.4122 7.78C40.5855 8.24667 40.8255 8.61333 41.1322 8.88C41.4389 9.13333 41.7922 9.26 42.1922 9.26C42.5789 9.26 42.9189 9.13333 43.2122 8.88C43.5189 8.61333 43.7589 8.24667 43.9322 7.78C44.1055 7.31333 44.1922 6.76667 44.1922 6.14ZM65.6573 6.14C65.6573 7.31333 65.4307 8.36 64.9773 9.28C64.524 10.1867 63.904 10.9 63.1173 11.42C62.3307 11.94 61.4373 12.2 60.4373 12.2C59.4507 12.2 58.5573 11.94 57.7573 11.42C56.9707 10.9 56.3507 10.1867 55.8973 9.28C55.444 8.36 55.2173 7.31333 55.2173 6.14C55.2173 4.96667 55.444 3.92667 55.8973 3.02C56.3507 2.1 56.9707 1.38 57.7573 0.859999C58.5573 0.326666 59.4507 0.0599999 60.4373 0.0599999C61.4373 0.0599999 62.3307 0.326666 63.1173 0.859999C63.904 1.38 64.524 2.1 64.9773 3.02C65.4307 3.92667 65.6573 4.96667 65.6573 6.14ZM62.4373 6.14C62.4373 5.51333 62.3507 4.96667 62.1773 4.5C62.004 4.03333 61.764 3.66667 61.4573 3.4C61.164 3.13333 60.824 3 60.4373 3C60.0373 3 59.684 3.13333 59.3773 3.4C59.0707 3.66667 58.8307 4.03333 58.6573 4.5C58.4973 4.96667 58.4173 5.51333 58.4173 6.14C58.4173 6.76667 58.4973 7.31333 58.6573 7.78C58.8307 8.24667 59.0707 8.61333 59.3773 8.88C59.684 9.13333 60.0373 9.26 60.4373 9.26C60.824 9.26 61.164 9.13333 61.4573 8.88C61.764 8.61333 62.004 8.24667 62.1773 7.78C62.3507 7.31333 62.4373 6.76667 62.4373 6.14ZM83.9025 6.14C83.9025 7.31333 83.6758 8.36 83.2225 9.28C82.7692 10.1867 82.1492 10.9 81.3625 11.42C80.5758 11.94 79.6825 12.2 78.6825 12.2C77.6958 12.2 76.8025 11.94 76.0025 11.42C75.2158 10.9 74.5958 10.1867 74.1425 9.28C73.6892 8.36 73.4625 7.31333 73.4625 6.14C73.4625 4.96667 73.6892 3.92667 74.1425 3.02C74.5958 2.1 75.2158 1.38 76.0025 0.859999C76.8025 0.326666 77.6958 0.0599999 78.6825 0.0599999C79.6825 0.0599999 80.5758 0.326666 81.3625 0.859999C82.1492 1.38 82.7692 2.1 83.2225 3.02C83.6758 3.92667 83.9025 4.96667 83.9025 6.14ZM80.6825 6.14C80.6825 5.51333 80.5958 4.96667 80.4225 4.5C80.2492 4.03333 80.0092 3.66667 79.7025 3.4C79.4092 3.13333 79.0692 3 78.6825 3C78.2825 3 77.9292 3.13333 77.6225 3.4C77.3158 3.66667 77.0758 4.03333 76.9025 4.5C76.7425 4.96667 76.6625 5.51333 76.6625 6.14C76.6625 6.76667 76.7425 7.31333 76.9025 7.78C77.0758 8.24667 77.3158 8.61333 77.6225 8.88C77.9292 9.13333 78.2825 9.26 78.6825 9.26C79.0692 9.26 79.4092 9.13333 79.7025 8.88C80.0092 8.61333 80.2492 8.24667 80.4225 7.78C80.5958 7.31333 80.6825 6.76667 80.6825 6.14ZM102.148 6.14C102.148 7.31333 101.921 8.36 101.468 9.28C101.014 10.1867 100.394 10.9 99.6077 11.42C98.821 11.94 97.9277 12.2 96.9277 12.2C95.941 12.2 95.0477 11.94 94.2477 11.42C93.461 10.9 92.841 10.1867 92.3877 9.28C91.9343 8.36 91.7077 7.31333 91.7077 6.14C91.7077 4.96667 91.9343 3.92667 92.3877 3.02C92.841 2.1 93.461 1.38 94.2477 0.859999C95.0477 0.326666 95.941 0.0599999 96.9277 0.0599999C97.9277 0.0599999 98.821 0.326666 99.6077 0.859999C100.394 1.38 101.014 2.1 101.468 3.02C101.921 3.92667 102.148 4.96667 102.148 6.14ZM98.9277 6.14C98.9277 5.51333 98.841 4.96667 98.6677 4.5C98.4943 4.03333 98.2543 3.66667 97.9477 3.4C97.6543 3.13333 97.3143 3 96.9277 3C96.5277 3 96.1743 3.13333 95.8677 3.4C95.561 3.66667 95.321 4.03333 95.1477 4.5C94.9877 4.96667 94.9077 5.51333 94.9077 6.14C94.9077 6.76667 94.9877 7.31333 95.1477 7.78C95.321 8.24667 95.561 8.61333 95.8677 8.88C96.1743 9.13333 96.5277 9.26 96.9277 9.26C97.3143 9.26 97.6543 9.13333 97.9477 8.88C98.2543 8.61333 98.4943 8.24667 98.6677 7.78C98.841 7.31333 98.9277 6.76667 98.9277 6.14ZM120.393 6.14C120.393 7.31333 120.166 8.36 119.713 9.28C119.259 10.1867 118.639 10.9 117.853 11.42C117.066 11.94 116.173 12.2 115.173 12.2C114.186 12.2 113.293 11.94 112.493 11.42C111.706 10.9 111.086 10.1867 110.633 9.28C110.179 8.36 109.953 7.31333 109.953 6.14C109.953 4.96667 110.179 3.92667 110.633 3.02C111.086 2.1 111.706 1.38 112.493 0.859999C113.293 0.326666 114.186 0.0599999 115.173 0.0599999C116.173 0.0599999 117.066 0.326666 117.853 0.859999C118.639 1.38 119.259 2.1 119.713 3.02C120.166 3.92667 120.393 4.96667 120.393 6.14ZM117.173 6.14C117.173 5.51333 117.086 4.96667 116.913 4.5C116.739 4.03333 116.499 3.66667 116.193 3.4C115.899 3.13333 115.559 3 115.173 3C114.773 3 114.419 3.13333 114.113 3.4C113.806 3.66667 113.566 4.03333 113.393 4.5C113.233 4.96667 113.153 5.51333 113.153 6.14C113.153 6.76667 113.233 7.31333 113.393 7.78C113.566 8.24667 113.806 8.61333 114.113 8.88C114.419 9.13333 114.773 9.26 115.173 9.26C115.559 9.26 115.899 9.13333 116.193 8.88C116.499 8.61333 116.739 8.24667 116.913 7.78C117.086 7.31333 117.173 6.76667 117.173 6.14ZM134.858 3.62V6.18H132.958V8.26H130.078V6.18H128.198V3.62H130.078V1.54H132.958V3.62H134.858Z" fill="black"/>
</svg>
