<svg width="97" height="13" viewBox="0 0 97 13" fill="none" xmlns="http://www.w3.org/2000/svg">
<path d="M9.16555 9.05994V11.9399H0.525545V9.05994H3.36555V3.95994C3.24555 4.11994 3.05888 4.27994 2.80555 4.43994C2.55221 4.59994 2.26555 4.75327 1.94555 4.89994C1.63888 5.04661 1.32555 5.16661 1.00555 5.25994C0.685545 5.33994 0.392212 5.37994 0.125545 5.37994V2.41994C0.352212 2.41994 0.632212 2.35327 0.965545 2.21994C1.29888 2.07327 1.63221 1.89327 1.96555 1.67994C2.31221 1.46661 2.61221 1.25327 2.86555 1.03994C3.13221 0.826607 3.29888 0.653274 3.36555 0.519941H6.62555V9.05994H9.16555ZM26.9571 6.07994C26.9571 7.25327 26.7304 8.29994 26.2771 9.21994C25.8238 10.1266 25.2038 10.8399 24.4171 11.3599C23.6304 11.8799 22.7371 12.1399 21.7371 12.1399C20.7504 12.1399 19.8571 11.8799 19.0571 11.3599C18.2704 10.8399 17.6504 10.1266 17.1971 9.21994C16.7438 8.29994 16.5171 7.25327 16.5171 6.07994C16.5171 4.90661 16.7438 3.86661 17.1971 2.95994C17.6504 2.03994 18.2704 1.31994 19.0571 0.799941C19.8571 0.266608 20.7504 -5.8651e-05 21.7371 -5.8651e-05C22.7371 -5.8651e-05 23.6304 0.266608 24.4171 0.799941C25.2038 1.31994 25.8238 2.03994 26.2771 2.95994C26.7304 3.86661 26.9571 4.90661 26.9571 6.07994ZM23.7371 6.07994C23.7371 5.45327 23.6504 4.90661 23.4771 4.43994C23.3038 3.97327 23.0638 3.60661 22.7571 3.33994C22.4638 3.07327 22.1238 2.93994 21.7371 2.93994C21.3371 2.93994 20.9838 3.07327 20.6771 3.33994C20.3704 3.60661 20.1304 3.97327 19.9571 4.43994C19.7971 4.90661 19.7171 5.45327 19.7171 6.07994C19.7171 6.70661 19.7971 7.25327 19.9571 7.71994C20.1304 8.18661 20.3704 8.55327 20.6771 8.81994C20.9838 9.07327 21.3371 9.19994 21.7371 9.19994C22.1238 9.19994 22.4638 9.07327 22.7571 8.81994C23.0638 8.55327 23.3038 8.18661 23.4771 7.71994C23.6504 7.25327 23.7371 6.70661 23.7371 6.07994ZM45.2023 6.07994C45.2023 7.25327 44.9756 8.29994 44.5223 9.21994C44.0689 10.1266 43.4489 10.8399 42.6623 11.3599C41.8756 11.8799 40.9823 12.1399 39.9823 12.1399C38.9956 12.1399 38.1023 11.8799 37.3023 11.3599C36.5156 10.8399 35.8956 10.1266 35.4423 9.21994C34.9889 8.29994 34.7623 7.25327 34.7623 6.07994C34.7623 4.90661 34.9889 3.86661 35.4423 2.95994C35.8956 2.03994 36.5156 1.31994 37.3023 0.799941C38.1023 0.266608 38.9956 -5.8651e-05 39.9823 -5.8651e-05C40.9823 -5.8651e-05 41.8756 0.266608 42.6623 0.799941C43.4489 1.31994 44.0689 2.03994 44.5223 2.95994C44.9756 3.86661 45.2023 4.90661 45.2023 6.07994ZM41.9823 6.07994C41.9823 5.45327 41.8956 4.90661 41.7223 4.43994C41.5489 3.97327 41.3089 3.60661 41.0023 3.33994C40.7089 3.07327 40.3689 2.93994 39.9823 2.93994C39.5823 2.93994 39.2289 3.07327 38.9223 3.33994C38.6156 3.60661 38.3756 3.97327 38.2023 4.43994C38.0423 4.90661 37.9623 5.45327 37.9623 6.07994C37.9623 6.70661 38.0423 7.25327 38.2023 7.71994C38.3756 8.18661 38.6156 8.55327 38.9223 8.81994C39.2289 9.07327 39.5823 9.19994 39.9823 9.19994C40.3689 9.19994 40.7089 9.07327 41.0023 8.81994C41.3089 8.55327 41.5489 8.18661 41.7223 7.71994C41.8956 7.25327 41.9823 6.70661 41.9823 6.07994ZM63.4474 6.07994C63.4474 7.25327 63.2208 8.29994 62.7674 9.21994C62.3141 10.1266 61.6941 10.8399 60.9074 11.3599C60.1208 11.8799 59.2274 12.1399 58.2274 12.1399C57.2408 12.1399 56.3474 11.8799 55.5474 11.3599C54.7608 10.8399 54.1408 10.1266 53.6874 9.21994C53.2341 8.29994 53.0074 7.25327 53.0074 6.07994C53.0074 4.90661 53.2341 3.86661 53.6874 2.95994C54.1408 2.03994 54.7608 1.31994 55.5474 0.799941C56.3474 0.266608 57.2408 -5.8651e-05 58.2274 -5.8651e-05C59.2274 -5.8651e-05 60.1208 0.266608 60.9074 0.799941C61.6941 1.31994 62.3141 2.03994 62.7674 2.95994C63.2208 3.86661 63.4474 4.90661 63.4474 6.07994ZM60.2274 6.07994C60.2274 5.45327 60.1408 4.90661 59.9674 4.43994C59.7941 3.97327 59.5541 3.60661 59.2474 3.33994C58.9541 3.07327 58.6141 2.93994 58.2274 2.93994C57.8274 2.93994 57.4741 3.07327 57.1674 3.33994C56.8608 3.60661 56.6208 3.97327 56.4474 4.43994C56.2874 4.90661 56.2074 5.45327 56.2074 6.07994C56.2074 6.70661 56.2874 7.25327 56.4474 7.71994C56.6208 8.18661 56.8608 8.55327 57.1674 8.81994C57.4741 9.07327 57.8274 9.19994 58.2274 9.19994C58.6141 9.19994 58.9541 9.07327 59.2474 8.81994C59.5541 8.55327 59.7941 8.18661 59.9674 7.71994C60.1408 7.25327 60.2274 6.70661 60.2274 6.07994ZM81.6926 6.07994C81.6926 7.25327 81.4659 8.29994 81.0126 9.21994C80.5592 10.1266 79.9392 10.8399 79.1526 11.3599C78.3659 11.8799 77.4726 12.1399 76.4726 12.1399C75.4859 12.1399 74.5926 11.8799 73.7926 11.3599C73.0059 10.8399 72.3859 10.1266 71.9326 9.21994C71.4792 8.29994 71.2526 7.25327 71.2526 6.07994C71.2526 4.90661 71.4792 3.86661 71.9326 2.95994C72.3859 2.03994 73.0059 1.31994 73.7926 0.799941C74.5926 0.266608 75.4859 -5.8651e-05 76.4726 -5.8651e-05C77.4726 -5.8651e-05 78.3659 0.266608 79.1526 0.799941C79.9392 1.31994 80.5592 2.03994 81.0126 2.95994C81.4659 3.86661 81.6926 4.90661 81.6926 6.07994ZM78.4726 6.07994C78.4726 5.45327 78.3859 4.90661 78.2126 4.43994C78.0392 3.97327 77.7992 3.60661 77.4926 3.33994C77.1992 3.07327 76.8592 2.93994 76.4726 2.93994C76.0726 2.93994 75.7192 3.07327 75.4126 3.33994C75.1059 3.60661 74.8659 3.97327 74.6926 4.43994C74.5326 4.90661 74.4526 5.45327 74.4526 6.07994C74.4526 6.70661 74.5326 7.25327 74.6926 7.71994C74.8659 8.18661 75.1059 8.55327 75.4126 8.81994C75.7192 9.07327 76.0726 9.19994 76.4726 9.19994C76.8592 9.19994 77.1992 9.07327 77.4926 8.81994C77.7992 8.55327 78.0392 8.18661 78.2126 7.71994C78.3859 7.25327 78.4726 6.70661 78.4726 6.07994ZM96.1577 3.55994V6.11994H94.2577V8.19994H91.3777V6.11994H89.4977V3.55994H91.3777V1.47994H94.2577V3.55994H96.1577Z" fill="black"/>
</svg>
